# xmcd
#
# Track frame offsets: 
#        150
#        18367
#        37190
#        52154
#        72950
#        90001
#        108621
#        125073
#        148716
#        181793
#        209368
#        234589
#        255596
#        276801
#        303692
#        330075
#
# Disc length: 4685 seconds
#
# Revision: 0
# Processed by: cddbd v1.5.2PL0 Copyright (c) Steve Scherf et al.
# Submitted via: ExactAudioCopyFreeDBPlugin 1.0
#
DISCID=e5124b10
DTITLE=Compilation - pure... 80 soul grooves
DYEAR=1900
DGENRE=Soul
TTITLE0=Earth, Wind and Fire - Let's groove
TTITLE1=KC and The Sunshine Band - Give it up
TTITLE2=Tom Browne - Funkin' for Jamaica
TTITLE3=Gladys Knight - Bourgie' Bourgie'
TTITLE4=Luther Vandross - Never too much
TTITLE5=Bill Withers - Lovely Day
TTITLE6=Billy Griffin - Hold me thighter in the rain
TTITLE7=Keni Burke - Risin to the top
TTITLE8=The main ingredinet - Evening of love
TTITLE9=The Pointer Sisters - Aitomatic
TTITLE10=Glenn Jones - Meet me halfway there
TTITLE11=Aretha Franklin - Who's Zoomin who?
TTITLE12=Billy Ocean - Nights
TTITLE13=Stanley Clarke - Heaven sent you
TTITLE14=Mtume - Tie me up
TTITLE15=Nicole and Timmy Thomas - New York eyes
EXTD=
EXTT0=
EXTT1=
EXTT2=
EXTT3=
EXTT4=
EXTT5=
EXTT6=
EXTT7=
EXTT8=
EXTT9=
EXTT10=
EXTT11=
EXTT12=
EXTT13=
EXTT14=
EXTT15=
PLAYORDER=
